<?xml version="1.0" encoding="utf-8"?>
<!-- Generator: Adobe Illustrator 22.0.0, SVG Export Plug-In . SVG Version: 6.00 Build 0)  -->
<svg version="1.1" id="Layer_1" xmlns="http://www.w3.org/2000/svg" xmlns:xlink="http://www.w3.org/1999/xlink" x="0px" y="0px"
	 viewBox="0 0 288 176.8" style="enable-background:new 0 0 288 176.8;" xml:space="preserve">
<style type="text/css">
	.st0{fill:#244D8D;}
</style>
<path class="st0" d="M18.3,97.8c0-0.7,0-1.1,0-1.9c0.9-0.7,1.6-1.4,1.9-2.4c0.3-0.9,0.5-2.7,0.5-5.4c0-8.8,0-17.5,0-26.3
	c0-2.7-0.2-4.4-0.5-5c-0.3-0.6-1-0.8-1.9-0.5c0-0.7,0-1.1,0-1.9c7.4-3.5,14.8-6.7,22.3-9.7c2-0.7,4.3-1.6,6.2-0.8
	c1.2,0.5,1.8,2.1,1.8,4.5c0,1.8-0.5,3.7-1.6,5.5c-1.6,2.8-6,7.3-6,7.3c0,0.2,5.4,0.4,7.5,2.6c2,2.2,2.6,5.1,2.8,8.1
	c0.1,3.7-1.2,7.6-3.4,10.3c-2.8,3.5-6.6,5.3-10.2,6.9C31.2,91.9,24.7,94.8,18.3,97.8z M30.8,65.4c2.1-2,4.3-4,6.1-6.5
	c1.3-1.8,1.9-3.6,1.9-5.2c0-1.2-0.4-2-1.1-2.3c-0.7-0.3-1.8-0.2-3.2,0.4c-1.5,0.6-2.5,1.2-3,1.7c-0.5,0.5-0.7,1.4-0.7,2.6
	C30.8,59.3,30.8,62.3,30.8,65.4z M30.8,85.2c0,1.2,0.2,1.9,0.6,2c0.4,0.1,1.2-0.1,2.4-0.6c2-0.8,3.9-2.4,5.3-4.5
	c1.3-2.1,1.9-4.7,1.9-7.3c0-2.1-0.4-4-1.3-5.4c-0.8-1.4-2.9-3.4-3.8-3.1c-0.4,0.1-1.2,1.2-1.9,1.8c-0.7,0.6-1.8,1.5-3.3,2.6
	C30.8,75.5,30.8,80.3,30.8,85.2z M55.5,62.4c0.3-4,0.6-8,1-12c0.1,0,0.2,0,0.4,0c0.9,0.1,1.5,0.1,1.8,0c0.2-0.1,1.4-0.9,3.6-2.1
	c2-1.2,4.1-2.2,6.2-2.8c1.5-0.5,3.1-0.7,4.4-0.7c1.4,0,2.5,0.2,3.3,0.5c1.1,0.5,1.9,1.3,2.4,2.3c0.5,1.1,0.7,3,0.7,5.7
	c0,4.7,0,9.4,0,14.1c0,2.4,0.2,4,0.7,4.8c0.5,0.8,1.4,1.3,2.6,1.6c0,0.7,0,1,0,1.6c-3.7,0.8-7.4,1.7-11.1,2.7
	c-0.3-0.4-0.6-0.9-0.8-1.5C70.4,76,70,74.3,70,74.3c-0.1,0-2.2,3.6-3.7,4.8c-1.7,1.4-3.5,2.2-5.3,2.8c-1.9,0.7-4.1,0.8-5.8-0.5
	c-1.5-1.1-2.2-3.5-2.1-5.6c0.1-3.9,1.7-7.5,4-10.2c3.5-4.2,8-6.7,12.4-9c0-0.8,0-1.2,0-2c0-1.6-0.3-2.7-1-3.3
	c-0.7-0.6-1.8-0.7-3.2-0.3c-2,0.6-3.9,1.9-5.4,3.8c-1.5,2-2.6,4.4-3.2,7.1C56.2,62.2,55.9,62.2,55.5,62.4z M69.5,60.7
	c-1.9,1.2-3.8,2.7-5.3,4.7c-1.1,1.7-1.7,3.5-1.7,5.6c0,1.1,0.2,1.9,0.7,2.4c0.5,0.5,1.1,0.7,1.8,0.5c1.4-0.4,2.5-1.5,3.3-3.4
	c0.9-2.2,1.2-4.8,1.2-7.3C69.5,62.2,69.5,61.7,69.5,60.7z M85.4,77.2c0.6,0.1,0.9,0.2,1.5,0.3c-0.1,0.4-0.1,0.8-0.1,1.1
	c0,0.3,0,0.7,0,1c0,1.1,0.2,2,0.7,2.5c0.5,0.6,1.1,0.8,1.9,0.6c1.2-0.2,2.2-1.1,3-2.7c0.8-1.6,1.2-3.4,1.2-5.5
	c0-1.1-0.1-2.2-0.4-3.5c-0.3-1.3-0.7-2.9-1.4-4.8c-1.8-5.4-3.7-10.7-5.5-16.1c-0.7-1.9-1.3-3.2-1.8-4c-0.6-0.8-1.3-1.3-2.1-1.5
	c0-0.6,0-0.9,0-1.5c4.8-1,9.5-2,14.3-2.8c0,0.6,0,0.9,0,1.5c-0.5,0.3-0.9,0.6-1.1,1c-0.2,0.4-0.4,0.9-0.4,1.6c0,0.4,0.1,1,0.3,1.7
	c0.2,0.7,0.5,1.7,0.9,2.8c1.1,3.2,2.2,6.5,3.2,9.7c1-4.1,2.1-8.2,3.1-12.3c0.2-0.6,0.3-1,0.4-1.4c0.1-0.4,0.1-0.6,0.1-0.6
	c0-0.1,0-0.3,0-0.6c0-0.2,0-0.4,0-0.5c0-0.6-0.1-1-0.4-1.3c-0.3-0.3-0.7-0.6-1.4-0.9c0-0.6,0-0.9,0-1.5c3.2-0.5,6.5-0.9,9.7-1.3
	c0,0.6,0,0.9,0,1.5c-1,0.5-1.8,1.2-2.4,2.1c-0.6,0.9-1.3,2.5-2,4.8c-3.1,10-6.2,20-9.2,30c-0.9,3.1-2.1,6.3-3.9,8.6
	c-1.4,1.8-3.3,2.9-5.3,3.3c-1,0.2-2,0.2-2.9-0.1c-0.9-0.2-1.9-0.7-3-1.5C83.5,83.8,84.5,80.5,85.4,77.2z M116.5,70.1
	c0-0.7,0-1.1,0-1.9c0.5-0.2,0.9-0.4,1.1-0.8c0.2-0.4,0.4-0.9,0.4-1.5c0-0.4-0.1-1.1-0.3-2.2c-0.1-0.5-0.2-1-0.2-1.3
	c-1.4-9-2.8-18.1-4.1-27.1c-0.3-2.2-0.7-3.7-1.2-4.5c-0.5-0.8-1.2-1.3-2.1-1.4c0-0.7,0-1.1,0-1.9c5.2-0.6,10.4-1.1,15.6-1.4
	c0,0.7,0,1.1,0,1.9c-0.8,0.4-1.4,0.8-1.7,1.3c-0.3,0.5-0.5,1.2-0.5,2.2c0,0.5,0.1,1.6,0.3,3c0,0.2,0.1,0.5,0.1,0.6
	c1.2,7.7,2.3,15.4,3.5,23.1c1.2-7.9,2.4-15.8,3.6-23.7c0-0.3,0.1-0.8,0.2-1.4c0.2-1.1,0.3-1.9,0.3-2.4c0-0.8-0.2-1.5-0.6-2
	c-0.4-0.5-1-0.8-2-1.1c0-0.7,0-1.1,0-1.9c5-0.2,9.9-0.4,14.9-0.4c0,0.7,0,1.1,0,1.9c-0.7,0.3-1.3,0.7-1.6,1.2
	c-0.3,0.5-0.5,1.1-0.5,2c0,0.3,0,0.8,0.1,1.5c0.1,0.7,0.2,1.5,0.4,2.3c1.4,7.8,2.8,15.6,4.2,23.4c1.3-7.8,2.6-15.6,3.9-23.4
	c0.1-0.6,0.2-1.2,0.2-1.8c0-0.6,0.1-1.1,0.1-1.6c0-1-0.2-1.8-0.7-2.4c-0.5-0.6-1.2-0.9-2.1-1.1c0-0.7,0-1.1,0-1.9
	c3.5,0.1,7,0.2,10.6,0.4c0,0.7,0,1.1,0,1.9c-2.3,0.6-3.2,4.1-3.6,6.5c0,0.2-0.1,0.4-0.1,0.5c-1.5,9.1-3.1,18.2-4.6,27.3
	c0,0.3-0.1,0.8-0.2,1.3c-0.1,0.8-0.2,1.3-0.2,1.5c0,0.6,0.1,1,0.4,1.4c0.2,0.4,0.6,0.6,1,0.8c0,0.7,0,1.1,0,1.9
	c-5.2-0.1-10.4-0.1-15.5,0c0-0.7,0-1.1,0-1.9c0.5-0.1,0.9-0.4,1.1-0.7c0.2-0.3,0.3-0.8,0.3-1.5c0-0.4,0-0.8-0.1-1.5
	c-0.1-0.6-0.2-1.3-0.3-2.1c-0.9-5.3-1.8-10.7-2.7-16c-0.9,5.7-1.8,11.4-2.7,17.1c0,0.2,0,0.3-0.1,0.5c-0.2,1.4-0.3,2.2-0.3,2.4
	c0,0.6,0.1,1.1,0.2,1.4c0.2,0.3,0.4,0.5,0.8,0.6c0,0.7,0,1.1,0,1.9C126.5,69.2,121.5,69.6,116.5,70.1z M157.1,52.8
	c0-4.7,1.3-9.3,4.2-12.3c3.3-3.4,7.6-4,11.5-3.6c4.1,0.4,8.3,2.2,11.5,6.1c2.8,3.5,4.2,8.3,4.2,13.2c0,4.6-1.2,9.1-4.2,11.9
	c-3.4,3.2-7.6,3.6-11.5,3.1c-4.1-0.4-8.3-1.9-11.5-5.6C158.4,62.3,157.1,57.6,157.1,52.8z M172.5,41.9c-1.5-0.2-2.7,0.7-3.5,2.4
	c-1.1,2.1-1.4,4.8-1.3,7.3c0.1,3.6,0.2,7.3,1.4,10.6c0.8,2.1,2.3,3.8,4.2,4c1.4,0.2,2.6-0.6,3.5-2.4c1-2.2,1.3-4.9,1.3-7.4
	c-0.1-3.5-0.3-7.2-1.4-10.4C175.8,43.9,174.4,42.1,172.5,41.9z M194,49c0-2.1-0.2-3.5-0.6-4.3c-0.4-0.8-1.1-1.4-2.1-1.7
	c0-0.7,0-1,0-1.6c3.7,0.4,7.4,0.8,11,1.3c0.3,0.8,0.5,1.7,0.7,2.7c0.2,1,0.4,3.4,0.4,3.4c0.1,0,2.3-3.1,3.8-3.9
	c1.3-0.7,2.7-0.9,4.2-0.5c0.4,0.1,1.1,0.4,2.1,0.8c0.1,0,0.1,0,0.1,0.1c-0.6,2.8-1.2,5.6-1.8,8.5c-0.8-0.8-1.6-1.4-2.2-1.8
	c-0.6-0.4-1.2-0.7-1.8-0.8c-1.6-0.4-2.8,0.1-3.4,1.4c-1.1,2.5-0.9,6.2-1,9c0,1.9,0,2.8,0,4.7c0,2.9,0.2,4.9,0.6,5.9
	c0.4,1,1.2,1.8,2.2,2.3c0,0.7,0,1,0,1.6c-4.9-1.1-9.9-2.1-14.9-3c0-0.7,0-1,0-1.6c0.9,0,1.6-0.2,2-0.8c0.4-0.6,0.6-1.9,0.6-4.1
	C194,60.7,194,54.8,194,49z M216.9,51.1c-1.2-0.3-1.8-0.5-3-0.8c0-0.8,0-1.2,0-1.9c1.1,0.2,2-0.3,2.8-1.6c0.8-1.3,1.2-3,1.2-5
	c0-0.3,0-0.7-0.1-1.2c0-0.5-0.1-1.2-0.2-2c2.9-0.5,5.7-1,8.6-1.5c0,4.2,0,8.4,0,12.6c1.6,0.5,2.5,0.8,4.1,1.3
	c0.7,0.2,1.2,0.3,1.6,0.3c0.4,0,0.9-0.1,1.3-0.2c-0.5,2.1-0.8,3.1-1.3,5.1c-0.3-0.3-0.6-0.6-1-0.8c-0.4-0.2-0.9-0.4-1.5-0.6
	c-1.3-0.4-1.9-0.6-3.2-1c0,5.7,0,11.4,0,17.1c0,2.2,0.2,3.8,0.6,4.8c0.4,1,1.1,1.6,2.1,2c0.9,0.3,1.8,0.1,2.6-0.6
	c0.8-0.7,1.5-1.9,2.1-3.5c0.5,0.4,0.7,0.5,1.2,0.9c-1,2.8-2,5.6-2.9,8.3c-1.5,0-2.9,0-4.1-0.2c-1.2-0.1-2.3-0.3-3.3-0.6
	c-2.2-0.7-4.5-1.9-6-4.3c-1.5-2.3-1.9-5.5-1.9-8.5C216.9,63.3,216.9,57.2,216.9,51.1z M237.3,85c0-0.7,0-1,0-1.6
	c0.9,0.2,1.6,0.1,1.9-0.5c0.4-0.6,0.5-1.9,0.5-3.9c0-10.1,0-20.1,0-30.2c0-2.1-0.1-3.5-0.4-4.1c-0.3-0.7-0.8-1.2-1.6-1.6
	c0-0.7,0-1,0-1.6c3.8,0.7,7.6,1.4,11.3,2.2c0,6.5,0,12.9,0,19.4c1.3-1.5,2.8-2.6,4.5-3c1.9-0.4,3.6,0.1,5.3,0.7c2,0.8,4,2.3,5.1,4.7
	c1.3,2.7,1.5,6.3,1.4,9.4c0,4.5,0,9,0,13.4c0,2.6,0.2,4.4,0.6,5.4c0.4,1,1.1,1.9,2.2,2.6c0,0.7,0,1,0,1.6c-4.9-2.3-9.8-4.5-14.8-6.6
	c0-0.7,0-1,0-1.6c1.1,0.2,1.8,0,2.2-0.7c0.4-0.7,0.6-2.1,0.6-4.2c0-4.1,0-8.3,0-12.4c0-2.2-0.2-3.8-0.6-4.8c-0.4-1-1-1.8-1.9-2.1
	c-1.5-0.6-2.7-0.1-3.4,1.4c-1.1,2.2-1.1,5-1.2,7.6c0,2.4,0,3.6,0,6c0,2.9,0.2,4.9,0.6,6c0.4,1.1,1.1,2,2.2,2.7c0,0.7,0,1,0,1.6
	C247,88.6,242.1,86.7,237.3,85z M38.7,141v-1.3c1.1-0.1,1.8-0.5,2.2-1.1c0.4-0.7,0.6-2,0.6-4.2v-20.2h-0.6c-2.1,0-3.8,0.6-5.1,1.7
	c-1.4,1.1-2.4,2.8-3.1,5l-1.3-0.2l2.1-10.5c0.3,0.2,0.6,0.3,0.9,0.4c0.3,0.1,0.7,0.1,1.2,0.1h21.2c0.5,0,0.9,0,1.2-0.1
	c0.3-0.1,0.6-0.2,0.9-0.4l2.1,10.5l-1.3,0.2c-0.7-2.2-1.7-3.9-3.1-5c-1.4-1.1-3.1-1.7-5.1-1.7h-0.6v20.2c0,2.1,0.2,3.5,0.6,4.2
	s1.2,1,2.2,1.1v1.3H38.7z M61.2,123.9c0-1.5-0.2-2.4-0.5-3c-0.3-0.5-1-0.8-1.9-0.9l0-1.1l9.7-0.6c0.3,0.5,0.5,1.1,0.7,1.8
	c0.2,0.7,0.3,1.4,0.4,2.3c1.1-1.5,2.2-2.6,3.4-3.3c1.2-0.7,2.4-1.1,3.7-1.1c0.4,0,1,0.1,1.9,0.2l0.1,0l-1.7,6.3
	c-0.7-0.4-1.4-0.7-2-0.9c-0.6-0.2-1.1-0.3-1.6-0.3c-1.4,0-2.4,0.5-3,1.6c-0.6,1-0.9,3.2-0.9,6.5v3.3c0,2.1,0.2,3.4,0.5,4
	c0.4,0.6,1,1,2,1.3v1.1H59v-1.1c0.8-0.1,1.4-0.4,1.7-0.8c0.3-0.4,0.5-1.4,0.5-2.9V123.9z M81.4,125.1c0-1.9-0.1-3-0.4-3.5
	c-0.3-0.5-0.7-0.7-1.4-0.8v-1.2l10.3-1.4v16.4c0,2.1,0.2,3.4,0.5,4c0.4,0.6,1,1,2,1.3v1.1H79.2v-1.1c0.8-0.1,1.4-0.4,1.7-0.8
	c0.3-0.5,0.5-1.4,0.5-2.9V125.1z M85.9,108.8c1.2,0,2.3,0.4,3.1,1.3c0.9,0.8,1.3,1.8,1.3,3c0,1.1-0.4,2.1-1.3,2.9
	c-0.9,0.8-1.9,1.2-3.2,1.2c-1.3,0-2.3-0.4-3.2-1.2c-0.9-0.8-1.3-1.8-1.3-2.9c0-1.2,0.4-2.1,1.3-3C83.6,109.2,84.7,108.8,85.9,108.8z
	 M122.5,141v-1.1c0.9-0.1,1.5-0.5,1.8-1.1c0.4-0.6,0.5-1.7,0.5-3.2v-8.7c0-1.5-0.2-2.6-0.5-3.2c-0.3-0.6-0.8-0.9-1.6-0.9
	c-1.2,0-2.1,0.7-2.8,2c-0.7,1.3-1,3.2-1,5.7v4.2c0,2.1,0.2,3.5,0.5,4.1c0.3,0.6,0.9,1,1.7,1.2v1.1h-12.9v-1.1
	c0.9-0.1,1.5-0.5,1.8-1.1c0.4-0.6,0.5-1.7,0.5-3.2v-8.7c0-1.5-0.2-2.6-0.5-3.2c-0.3-0.6-0.9-0.9-1.6-0.9c-1.2,0-2.1,0.7-2.8,2
	c-0.7,1.3-1,3.2-1,5.7v4.2c0,2.1,0.2,3.4,0.5,4.1c0.3,0.6,0.9,1,1.8,1.2v1.1H94.4l0-1.1c0.8-0.1,1.3-0.4,1.6-0.8
	c0.3-0.4,0.5-1.4,0.5-2.9v-12.3c0-1.5-0.2-2.4-0.5-3c-0.3-0.5-1-0.8-1.9-0.9l0-1.1l9.8-0.6c0.3,0.5,0.5,1.1,0.7,1.8
	c0.2,0.7,0.3,1.4,0.4,2.3c1.2-1.5,2.4-2.6,3.8-3.3c1.4-0.7,2.9-1.1,4.6-1.1c1.5,0,2.8,0.3,3.6,1c0.9,0.7,1.5,1.7,2,3.2
	c1.3-1.5,2.7-2.5,4.1-3.2c1.4-0.7,2.9-1,4.5-1c2.1,0,3.6,0.6,4.4,1.7c0.8,1.1,1.3,3.2,1.3,6.1v9.5c0,1.8,0.2,3.1,0.5,3.6
	c0.3,0.6,1,1,1.9,1.1v1.1H122.5z M166,141v-1.1c0.9-0.1,1.5-0.5,1.8-1.1c0.4-0.6,0.5-1.7,0.5-3.2v-8.7c0-1.5-0.2-2.6-0.5-3.2
	c-0.3-0.6-0.8-0.9-1.6-0.9c-1.2,0-2.1,0.7-2.8,2c-0.7,1.3-1,3.2-1,5.7v4.2c0,2.1,0.2,3.5,0.5,4.1c0.3,0.6,0.9,1,1.7,1.2v1.1h-12.9
	v-1.1c0.9-0.1,1.5-0.5,1.8-1.1c0.4-0.6,0.5-1.7,0.5-3.2v-8.7c0-1.5-0.2-2.6-0.5-3.2c-0.3-0.6-0.9-0.9-1.6-0.9c-1.2,0-2.1,0.7-2.8,2
	c-0.7,1.3-1,3.2-1,5.7v4.2c0,2.1,0.2,3.4,0.5,4.1c0.3,0.6,0.9,1,1.8,1.2v1.1h-12.8l0-1.1c0.8-0.1,1.3-0.4,1.6-0.8
	c0.3-0.4,0.5-1.4,0.5-2.9v-12.3c0-1.5-0.2-2.4-0.5-3c-0.3-0.5-1-0.8-1.9-0.9l0-1.1l9.8-0.6c0.3,0.5,0.5,1.1,0.7,1.8
	c0.2,0.7,0.3,1.4,0.4,2.3c1.2-1.5,2.4-2.6,3.8-3.3c1.4-0.7,2.9-1.1,4.6-1.1c1.5,0,2.8,0.3,3.6,1c0.9,0.7,1.5,1.7,2,3.2
	c1.3-1.5,2.7-2.5,4.1-3.2c1.4-0.7,2.9-1,4.5-1c2.1,0,3.6,0.6,4.4,1.7c0.8,1.1,1.3,3.2,1.3,6.1v9.5c0,1.8,0.2,3.1,0.5,3.6
	c0.3,0.6,1,1,1.9,1.1v1.1H166z M183.8,125.1c0-1.9-0.1-3-0.4-3.5c-0.3-0.5-0.7-0.7-1.4-0.8v-1.2l10.3-1.4v16.4c0,2.1,0.2,3.4,0.5,4
	c0.4,0.6,1,1,2,1.3v1.1h-13.2v-1.1c0.8-0.1,1.4-0.4,1.7-0.8c0.3-0.5,0.5-1.4,0.5-2.9V125.1z M188.3,108.8c1.2,0,2.3,0.4,3.1,1.3
	c0.9,0.8,1.3,1.8,1.3,3c0,1.1-0.4,2.1-1.3,2.9c-0.9,0.8-1.9,1.2-3.2,1.2c-1.3,0-2.3-0.4-3.2-1.2c-0.9-0.8-1.3-1.8-1.3-2.9
	c0-1.2,0.4-2.1,1.3-3C186,109.2,187,108.8,188.3,108.8z M196.7,141v-1.1c0.8-0.1,1.4-0.3,1.7-0.8c0.3-0.5,0.5-1.5,0.5-2.9v-12.3
	c0-1.5-0.2-2.4-0.5-3c-0.3-0.5-1-0.8-1.9-0.9l0-1.1l9.7-0.6c0.3,0.5,0.5,1.1,0.7,1.8c0.2,0.7,0.3,1.4,0.4,2.3
	c1.4-1.5,2.7-2.7,4.2-3.4c1.4-0.7,3-1.1,4.8-1.1c2.2,0,3.8,0.6,4.7,1.7c0.9,1.1,1.3,3.1,1.3,6.1v9.5c0,1.8,0.2,3,0.5,3.6
	c0.4,0.6,1,1,2,1.1v1.1h-13.6v-1.1c1-0.1,1.7-0.5,2-1.1c0.4-0.6,0.6-1.7,0.6-3.2v-8.7c0-1.5-0.2-2.6-0.5-3.2
	c-0.3-0.6-0.9-0.9-1.8-0.9c-1.4,0-2.4,0.7-3.1,2c-0.7,1.3-1.1,3.2-1.1,5.7v4.2c0,2,0.2,3.4,0.5,4c0.4,0.6,1,1.1,2,1.3v1.1H196.7z
	 M226.4,146.9l4.3-5.8l1.1,0.5c-0.1,0.3-0.3,0.6-0.3,0.8c-0.1,0.2-0.1,0.5-0.1,0.6c0,1.4,0.7,2.4,2.2,3.2c1.5,0.8,3.5,1.2,6.1,1.2
	c2,0,3.6-0.3,4.8-1c1.2-0.7,1.8-1.6,1.8-2.7c0-0.7-0.2-1.3-0.6-1.6c-0.4-0.4-1.1-0.6-2-0.8c-0.4,0-1.4-0.1-3-0.1
	c-1.6,0-3-0.2-4.2-0.4c-2.8-0.4-5.2-1.7-7-3.9c-1.8-2.2-2.8-4.6-2.8-7.5c0-3.8,1.2-6.6,3.5-8.5c2.3-1.9,5.8-2.8,10.4-2.8H254v1.1
	c-0.9,0.1-1.6,0.3-1.9,0.8c-0.3,0.4-0.5,1.3-0.5,2.8v11.3c0,1.2,0.1,2,0.2,2.4c0.1,0.4,0.4,0.9,1,1.6c0.1,0.1,0.2,0.3,0.4,0.4
	c1.2,1.5,1.8,2.8,1.8,4c0,2.5-1.4,4.6-4.1,6.2c-2.8,1.6-6.3,2.4-10.6,2.4c-2.7,0-5.2-0.4-7.4-1.1
	C230.5,149.5,228.4,148.4,226.4,146.9z M243.1,134.9v-13.8c-0.1,0-0.3,0-0.6,0c-0.4,0-0.7,0-0.8,0c-1.8,0-3.3,0.8-4.4,2.4
	c-1.1,1.6-1.6,3.7-1.6,6.5c0,2.4,0.4,4.4,1.3,5.7c0.9,1.4,2,2.1,3.5,2.1c0.9,0,1.5-0.2,2-0.7C242.9,136.6,243.1,135.9,243.1,134.9z"
	/>
</svg>
